<mxfile host="app.diagrams.net" modified="2022-02-07T19:28:06.501Z" agent="5.0 (Macintosh; Intel Mac OS X 10_15_7) AppleWebKit/605.1.15 (KHTML, like Gecko) Version/15.3 Safari/605.1.15" etag="jHv2q7HLTn50LHjZw-iS" version="16.5.3" type="github">
  <diagram id="JT5B8QQr4kYiMaE1ZzIW" name="Page-1">
    <mxGraphModel dx="830" dy="559" grid="1" gridSize="10" guides="1" tooltips="1" connect="1" arrows="1" fold="1" page="1" pageScale="1" pageWidth="827" pageHeight="1169" math="0" shadow="0">
      <root>
        <mxCell id="0" />
        <mxCell id="1" parent="0" />
        <mxCell id="59cwxuM8bhVFvn0urTvc-44" style="edgeStyle=orthogonalEdgeStyle;rounded=0;orthogonalLoop=1;jettySize=auto;html=1;entryX=0.04;entryY=0.5;entryDx=0;entryDy=0;entryPerimeter=0;" parent="1" target="59cwxuM8bhVFvn0urTvc-38" edge="1">
          <mxGeometry relative="1" as="geometry">
            <mxPoint x="90" y="220" as="sourcePoint" />
          </mxGeometry>
        </mxCell>
        <mxCell id="59cwxuM8bhVFvn0urTvc-4" value="" style="sketch=0;points=[[0,0,0],[0.25,0,0],[0.5,0,0],[0.75,0,0],[1,0,0],[0,1,0],[0.25,1,0],[0.5,1,0],[0.75,1,0],[1,1,0],[0,0.25,0],[0,0.5,0],[0,0.75,0],[1,0.25,0],[1,0.5,0],[1,0.75,0]];outlineConnect=0;fontColor=#232F3E;gradientColor=#945DF2;gradientDirection=north;fillColor=#5A30B5;strokeColor=#ffffff;dashed=0;verticalLabelPosition=bottom;verticalAlign=top;align=center;html=1;fontSize=12;fontStyle=0;aspect=fixed;shape=mxgraph.aws4.resourceIcon;resIcon=mxgraph.aws4.cloudsearch2;" parent="1" vertex="1">
          <mxGeometry x="210" y="362" width="78" height="78" as="geometry" />
        </mxCell>
        <mxCell id="59cwxuM8bhVFvn0urTvc-9" value="" style="sketch=0;points=[[0,0,0],[0.25,0,0],[0.5,0,0],[0.75,0,0],[1,0,0],[0,1,0],[0.25,1,0],[0.5,1,0],[0.75,1,0],[1,1,0],[0,0.25,0],[0,0.5,0],[0,0.75,0],[1,0.25,0],[1,0.5,0],[1,0.75,0]];outlineConnect=0;fontColor=#232F3E;gradientColor=#4D72F3;gradientDirection=north;fillColor=#3334B9;strokeColor=#ffffff;dashed=0;verticalLabelPosition=bottom;verticalAlign=top;align=center;html=1;fontSize=12;fontStyle=0;aspect=fixed;shape=mxgraph.aws4.resourceIcon;resIcon=mxgraph.aws4.dynamodb;" parent="1" vertex="1">
          <mxGeometry x="630" y="177" width="78" height="78" as="geometry" />
        </mxCell>
        <mxCell id="59cwxuM8bhVFvn0urTvc-11" value="" style="sketch=0;points=[[0,0,0],[0.25,0,0],[0.5,0,0],[0.75,0,0],[1,0,0],[0,1,0],[0.25,1,0],[0.5,1,0],[0.75,1,0],[1,1,0],[0,0.25,0],[0,0.5,0],[0,0.75,0],[1,0.25,0],[1,0.5,0],[1,0.75,0]];outlineConnect=0;fontColor=#232F3E;gradientColor=#945DF2;gradientDirection=north;fillColor=#5A30B5;strokeColor=#ffffff;dashed=0;verticalLabelPosition=bottom;verticalAlign=top;align=center;html=1;fontSize=12;fontStyle=0;aspect=fixed;shape=mxgraph.aws4.resourceIcon;resIcon=mxgraph.aws4.quicksight;" parent="1" vertex="1">
          <mxGeometry x="20" y="362" width="78" height="78" as="geometry" />
        </mxCell>
        <mxCell id="59cwxuM8bhVFvn0urTvc-21" style="edgeStyle=orthogonalEdgeStyle;rounded=0;orthogonalLoop=1;jettySize=auto;html=1;" parent="1" source="59cwxuM8bhVFvn0urTvc-13" target="59cwxuM8bhVFvn0urTvc-9" edge="1">
          <mxGeometry relative="1" as="geometry" />
        </mxCell>
        <mxCell id="59cwxuM8bhVFvn0urTvc-13" value="" style="outlineConnect=0;dashed=0;verticalLabelPosition=bottom;verticalAlign=top;align=center;html=1;shape=mxgraph.aws3.lambda_function;fillColor=#F58534;gradientColor=none;" parent="1" vertex="1">
          <mxGeometry x="379" y="180" width="69" height="72" as="geometry" />
        </mxCell>
        <mxCell id="59cwxuM8bhVFvn0urTvc-15" value="" style="edgeStyle=orthogonalEdgeStyle;html=1;endArrow=block;elbow=vertical;startArrow=block;startFill=1;endFill=1;strokeColor=#545B64;rounded=0;" parent="1" edge="1">
          <mxGeometry width="100" relative="1" as="geometry">
            <mxPoint x="100" y="400.5" as="sourcePoint" />
            <mxPoint x="200" y="400.5" as="targetPoint" />
          </mxGeometry>
        </mxCell>
        <mxCell id="59cwxuM8bhVFvn0urTvc-41" style="edgeStyle=orthogonalEdgeStyle;rounded=0;orthogonalLoop=1;jettySize=auto;html=1;entryX=1;entryY=0.5;entryDx=0;entryDy=0;entryPerimeter=0;" parent="1" source="59cwxuM8bhVFvn0urTvc-18" target="59cwxuM8bhVFvn0urTvc-39" edge="1">
          <mxGeometry relative="1" as="geometry" />
        </mxCell>
        <mxCell id="59cwxuM8bhVFvn0urTvc-18" value="" style="outlineConnect=0;dashed=0;verticalLabelPosition=bottom;verticalAlign=top;align=center;html=1;shape=mxgraph.aws3.event_event_based;fillColor=#759C3E;gradientColor=none;" parent="1" vertex="1">
          <mxGeometry x="639" y="359.75" width="60" height="82.5" as="geometry" />
        </mxCell>
        <mxCell id="59cwxuM8bhVFvn0urTvc-23" value="Event" style="text;html=1;strokeColor=none;fillColor=none;align=center;verticalAlign=middle;whiteSpace=wrap;rounded=0;" parent="1" vertex="1">
          <mxGeometry x="200" y="268" width="60" height="30" as="geometry" />
        </mxCell>
        <mxCell id="59cwxuM8bhVFvn0urTvc-28" style="edgeStyle=orthogonalEdgeStyle;rounded=0;orthogonalLoop=1;jettySize=auto;html=1;" parent="1" source="59cwxuM8bhVFvn0urTvc-27" edge="1">
          <mxGeometry relative="1" as="geometry">
            <mxPoint x="50" y="180" as="targetPoint" />
          </mxGeometry>
        </mxCell>
        <mxCell id="59cwxuM8bhVFvn0urTvc-27" value="" style="shape=datastore;whiteSpace=wrap;html=1;" parent="1" vertex="1">
          <mxGeometry x="20" y="40" width="60" height="60" as="geometry" />
        </mxCell>
        <mxCell id="59cwxuM8bhVFvn0urTvc-29" value="lambda" style="text;html=1;strokeColor=none;fillColor=none;align=center;verticalAlign=middle;whiteSpace=wrap;rounded=0;" parent="1" vertex="1">
          <mxGeometry x="394.5" y="260" width="60" height="30" as="geometry" />
        </mxCell>
        <mxCell id="59cwxuM8bhVFvn0urTvc-46" style="edgeStyle=orthogonalEdgeStyle;rounded=0;orthogonalLoop=1;jettySize=auto;html=1;" parent="1" source="59cwxuM8bhVFvn0urTvc-30" target="59cwxuM8bhVFvn0urTvc-18" edge="1">
          <mxGeometry relative="1" as="geometry" />
        </mxCell>
        <mxCell id="59cwxuM8bhVFvn0urTvc-30" value="dynamo db" style="text;html=1;strokeColor=none;fillColor=none;align=center;verticalAlign=middle;whiteSpace=wrap;rounded=0;" parent="1" vertex="1">
          <mxGeometry x="639" y="260" width="60" height="30" as="geometry" />
        </mxCell>
        <mxCell id="59cwxuM8bhVFvn0urTvc-31" value="" style="edgeStyle=orthogonalEdgeStyle;rounded=0;orthogonalLoop=1;jettySize=auto;html=1;entryX=0.5;entryY=0;entryDx=0;entryDy=0;entryPerimeter=0;endArrow=none;" parent="1" source="59cwxuM8bhVFvn0urTvc-9" target="59cwxuM8bhVFvn0urTvc-30" edge="1">
          <mxGeometry relative="1" as="geometry">
            <mxPoint x="669" y="249" as="sourcePoint" />
            <mxPoint x="669" y="358" as="targetPoint" />
          </mxGeometry>
        </mxCell>
        <mxCell id="59cwxuM8bhVFvn0urTvc-32" value="open search" style="text;html=1;strokeColor=none;fillColor=none;align=center;verticalAlign=middle;whiteSpace=wrap;rounded=0;" parent="1" vertex="1">
          <mxGeometry x="219" y="450" width="60" height="30" as="geometry" />
        </mxCell>
        <mxCell id="59cwxuM8bhVFvn0urTvc-33" value="DataStore" style="text;html=1;strokeColor=none;fillColor=none;align=center;verticalAlign=middle;whiteSpace=wrap;rounded=0;" parent="1" vertex="1">
          <mxGeometry x="90" y="55" width="60" height="30" as="geometry" />
        </mxCell>
        <mxCell id="59cwxuM8bhVFvn0urTvc-34" value="Quicksight" style="text;html=1;strokeColor=none;fillColor=none;align=center;verticalAlign=middle;whiteSpace=wrap;rounded=0;" parent="1" vertex="1">
          <mxGeometry x="30" y="450" width="60" height="30" as="geometry" />
        </mxCell>
        <mxCell id="59cwxuM8bhVFvn0urTvc-35" value="sends data" style="text;html=1;strokeColor=none;fillColor=none;align=center;verticalAlign=middle;whiteSpace=wrap;rounded=0;" parent="1" vertex="1">
          <mxGeometry x="50" y="120" width="60" height="30" as="geometry" />
        </mxCell>
        <mxCell id="59cwxuM8bhVFvn0urTvc-36" value="receives" style="text;html=1;strokeColor=none;fillColor=none;align=center;verticalAlign=middle;whiteSpace=wrap;rounded=0;" parent="1" vertex="1">
          <mxGeometry x="110" y="174" width="60" height="30" as="geometry" />
        </mxCell>
        <mxCell id="59cwxuM8bhVFvn0urTvc-37" value="modifies existing data and send data&amp;nbsp;&lt;br&gt;" style="text;html=1;strokeColor=none;fillColor=none;align=center;verticalAlign=middle;whiteSpace=wrap;rounded=0;" parent="1" vertex="1">
          <mxGeometry x="490" y="163.5" width="110" height="51" as="geometry" />
        </mxCell>
        <mxCell id="59cwxuM8bhVFvn0urTvc-45" style="edgeStyle=orthogonalEdgeStyle;rounded=0;orthogonalLoop=1;jettySize=auto;html=1;" parent="1" source="59cwxuM8bhVFvn0urTvc-38" edge="1">
          <mxGeometry relative="1" as="geometry">
            <mxPoint x="380" y="220" as="targetPoint" />
          </mxGeometry>
        </mxCell>
        <mxCell id="59cwxuM8bhVFvn0urTvc-38" value="" style="outlineConnect=0;dashed=0;verticalLabelPosition=bottom;verticalAlign=top;align=center;html=1;shape=mxgraph.aws3.event_event_based;fillColor=#759C3E;gradientColor=none;" parent="1" vertex="1">
          <mxGeometry x="210" y="178.75" width="60" height="82.5" as="geometry" />
        </mxCell>
        <mxCell id="59cwxuM8bhVFvn0urTvc-43" style="edgeStyle=orthogonalEdgeStyle;rounded=0;orthogonalLoop=1;jettySize=auto;html=1;" parent="1" source="59cwxuM8bhVFvn0urTvc-39" edge="1">
          <mxGeometry relative="1" as="geometry">
            <mxPoint x="290" y="401" as="targetPoint" />
          </mxGeometry>
        </mxCell>
        <mxCell id="59cwxuM8bhVFvn0urTvc-39" value="" style="outlineConnect=0;dashed=0;verticalLabelPosition=bottom;verticalAlign=top;align=center;html=1;shape=mxgraph.aws3.lambda_function;fillColor=#F58534;gradientColor=none;" parent="1" vertex="1">
          <mxGeometry x="390" y="365" width="69" height="72" as="geometry" />
        </mxCell>
        <mxCell id="59cwxuM8bhVFvn0urTvc-40" value="lambda" style="text;html=1;strokeColor=none;fillColor=none;align=center;verticalAlign=middle;whiteSpace=wrap;rounded=0;" parent="1" vertex="1">
          <mxGeometry x="394.5" y="450" width="60" height="30" as="geometry" />
        </mxCell>
        <mxCell id="59cwxuM8bhVFvn0urTvc-42" value="Event" style="text;html=1;strokeColor=none;fillColor=none;align=center;verticalAlign=middle;whiteSpace=wrap;rounded=0;" parent="1" vertex="1">
          <mxGeometry x="639" y="450" width="60" height="30" as="geometry" />
        </mxCell>
        <mxCell id="59cwxuM8bhVFvn0urTvc-47" value="triggers" style="text;html=1;strokeColor=none;fillColor=none;align=center;verticalAlign=middle;whiteSpace=wrap;rounded=0;" parent="1" vertex="1">
          <mxGeometry x="288" y="180" width="60" height="30" as="geometry" />
        </mxCell>
        <mxCell id="59cwxuM8bhVFvn0urTvc-48" value="receives" style="text;html=1;strokeColor=none;fillColor=none;align=center;verticalAlign=middle;whiteSpace=wrap;rounded=0;" parent="1" vertex="1">
          <mxGeometry x="670" y="310" width="60" height="30" as="geometry" />
        </mxCell>
        <mxCell id="59cwxuM8bhVFvn0urTvc-49" value="&lt;span style=&quot;font-size: 16px; font-style: normal; font-weight: 400; letter-spacing: normal; text-indent: 0px; text-transform: none; word-spacing: 0px; text-decoration: none; color: rgb(22, 25, 31); font-family: &amp;quot;amazon ember&amp;quot;, &amp;quot;helvetica neue&amp;quot;, roboto, arial, sans-serif; background-color: rgb(255, 255, 255); float: none; display: inline;&quot;&gt;perform the indexing&lt;/span&gt;" style="text;html=1;strokeColor=none;fillColor=none;align=center;verticalAlign=middle;whiteSpace=wrap;rounded=0;" parent="1" vertex="1">
          <mxGeometry x="290" y="365" width="100" height="30" as="geometry" />
        </mxCell>
        <mxCell id="59cwxuM8bhVFvn0urTvc-50" value="triggers" style="text;html=1;strokeColor=none;fillColor=none;align=center;verticalAlign=middle;whiteSpace=wrap;rounded=0;" parent="1" vertex="1">
          <mxGeometry x="515" y="365" width="60" height="30" as="geometry" />
        </mxCell>
        <mxCell id="Kd0lv0mYYPozRs3Kw0gB-1" value="" style="sketch=0;points=[[0,0,0],[0.25,0,0],[0.5,0,0],[0.75,0,0],[1,0,0],[0,1,0],[0.25,1,0],[0.5,1,0],[0.75,1,0],[1,1,0],[0,0.25,0],[0,0.5,0],[0,0.75,0],[1,0.25,0],[1,0.5,0],[1,0.75,0]];outlineConnect=0;fontColor=#232F3E;gradientColor=#60A337;gradientDirection=north;fillColor=#277116;strokeColor=#ffffff;dashed=0;verticalLabelPosition=bottom;verticalAlign=top;align=center;html=1;fontSize=12;fontStyle=0;aspect=fixed;shape=mxgraph.aws4.resourceIcon;resIcon=mxgraph.aws4.s3;" vertex="1" parent="1">
          <mxGeometry x="11" y="190" width="78" height="78" as="geometry" />
        </mxCell>
        <mxCell id="Kd0lv0mYYPozRs3Kw0gB-2" value="S3" style="text;html=1;strokeColor=none;fillColor=none;align=center;verticalAlign=middle;whiteSpace=wrap;rounded=0;" vertex="1" parent="1">
          <mxGeometry x="20" y="268" width="60" height="30" as="geometry" />
        </mxCell>
        <mxCell id="Kd0lv0mYYPozRs3Kw0gB-4" style="edgeStyle=orthogonalEdgeStyle;rounded=0;orthogonalLoop=1;jettySize=auto;html=1;exitX=0.5;exitY=1;exitDx=0;exitDy=0;" edge="1" parent="1" source="Kd0lv0mYYPozRs3Kw0gB-3">
          <mxGeometry relative="1" as="geometry">
            <mxPoint x="150" y="420" as="targetPoint" />
          </mxGeometry>
        </mxCell>
        <mxCell id="Kd0lv0mYYPozRs3Kw0gB-3" value="Create Dataset and dashboard&lt;br&gt;" style="text;html=1;strokeColor=none;fillColor=none;align=center;verticalAlign=middle;whiteSpace=wrap;rounded=0;" vertex="1" parent="1">
          <mxGeometry x="120" y="386" width="60" height="30" as="geometry" />
        </mxCell>
      </root>
    </mxGraphModel>
  </diagram>
</mxfile>
